<svg xmlns="http://www.w3.org/2000/svg" width="18" height="18" viewBox="0 0 18 18">
    <path fill="#336C80" fill-rule="evenodd" d="M17.754 15.574a.814.814 0 0 1 .246.598.814.814 0 0 1-.246.598l-.984.984a.814.814 0 0 1-.598.246.814.814 0 0 1-.598-.246l-3.515-3.516a.814.814 0 0 1-.246-.597v-.563C10.5 14.11 9 14.625 7.313 14.625c-1.336 0-2.561-.328-3.674-.984a7.388 7.388 0 0 1-2.655-2.655C.328 9.873 0 8.648 0 7.312c0-1.335.328-2.56.984-3.673A7.388 7.388 0 0 1 3.64.984C4.752.328 5.977 0 7.313 0c1.335 0 2.56.328 3.673.984a7.388 7.388 0 0 1 2.655 2.655c.656 1.113.984 2.338.984 3.674 0 1.687-.516 3.187-1.547 4.5h.563c.234 0 .433.082.597.246l3.516 3.515zM7.312 12.813a5.454 5.454 0 0 0 2.772-.731 5.35 5.35 0 0 0 1.998-1.998c.487-.845.73-1.769.73-2.771a5.454 5.454 0 0 0-.73-2.772 5.35 5.35 0 0 0-1.998-1.998 5.454 5.454 0 0 0-2.771-.73 5.454 5.454 0 0 0-2.772.73 5.35 5.35 0 0 0-1.998 1.998 5.454 5.454 0 0 0-.73 2.771c0 1.003.243 1.927.73 2.772a5.35 5.35 0 0 0 1.998 1.998c.845.487 1.769.73 2.771.73z"/>
</svg>
